{
    "patcher": {
        "fileversion": 1,
        "appversion": {
            "major": 9,
            "minor": 1,
            "revision": 1,
            "architecture": "x64",
            "modernui": 1
        },
        "classnamespace": "box",
        "rect": [ 229.0, 159.0, 657.0, 680.0 ],
        "boxes": [
            {
                "box": {
                    "id": "obj-21",
                    "maxclass": "message",
                    "numinlets": 2,
                    "numoutlets": 1,
                    "outlettype": [ "" ],
                    "patching_rect": [ 330.0, 332.0, 71.0, 22.0 ],
                    "text": "damping $1"
                }
            },
            {
                "box": {
                    "id": "obj-17",
                    "maxclass": "message",
                    "numinlets": 2,
                    "numoutlets": 1,
                    "outlettype": [ "" ],
                    "patching_rect": [ 235.0, 332.0, 74.0, 22.0 ],
                    "text": "feedback $1"
                }
            },
            {
                "box": {
                    "id": "obj-14",
                    "maxclass": "message",
                    "numinlets": 2,
                    "numoutlets": 1,
                    "outlettype": [ "" ],
                    "patching_rect": [ 146.0, 332.0, 77.0, 22.0 ],
                    "text": "delaytime $1"
                }
            },
            {
                "box": {
                    "id": "obj-7",
                    "maxclass": "newobj",
                    "numinlets": 2,
                    "numoutlets": 1,
                    "outlettype": [ "" ],
                    "patching_rect": [ 330.0, 195.0, 84.0, 22.0 ],
                    "text": "argListLookup"
                }
            },
            {
                "box": {
                    "id": "obj-24",
                    "maxclass": "newobj",
                    "numinlets": 2,
                    "numoutlets": 1,
                    "outlettype": [ "" ],
                    "patching_rect": [ 146.0, 195.0, 67.0, 22.0 ],
                    "text": "noteToMidi"
                }
            },
            {
                "box": {
                    "id": "obj-16",
                    "maxclass": "message",
                    "numinlets": 2,
                    "numoutlets": 1,
                    "outlettype": [ "" ],
                    "patching_rect": [ 146.0, 165.0, 32.0, 22.0 ],
                    "text": "$1 0"
                }
            },
            {
                "box": {
                    "id": "obj-12",
                    "maxclass": "newobj",
                    "numinlets": 1,
                    "numoutlets": 1,
                    "outlettype": [ "" ],
                    "patching_rect": [ 146.0, 255.0, 32.0, 22.0 ],
                    "text": "mtof"
                }
            },
            {
                "box": {
                    "id": "obj-11",
                    "maxclass": "newobj",
                    "numinlets": 1,
                    "numoutlets": 1,
                    "outlettype": [ "" ],
                    "patching_rect": [ 146.0, 225.0, 76.0, 22.0 ],
                    "text": "syncToScale"
                }
            },
            {
                "box": {
                    "id": "obj-9",
                    "maxclass": "newobj",
                    "numinlets": 2,
                    "numoutlets": 1,
                    "outlettype": [ "" ],
                    "patching_rect": [ 330.0, 390.0, 84.0, 22.0 ],
                    "text": "argListLookup"
                }
            },
            {
                "box": {
                    "id": "obj-6",
                    "maxclass": "newobj",
                    "numinlets": 3,
                    "numoutlets": 1,
                    "outlettype": [ "signal" ],
                    "patching_rect": [ 45.5, 450.0, 51.0, 22.0 ],
                    "text": "drywet~"
                }
            },
            {
                "box": {
                    "id": "obj-13",
                    "maxclass": "newobj",
                    "numinlets": 1,
                    "numoutlets": 1,
                    "outlettype": [ "" ],
                    "patcher": {
                        "fileversion": 1,
                        "appversion": {
                            "major": 9,
                            "minor": 1,
                            "revision": 1,
                            "architecture": "x64",
                            "modernui": 1
                        },
                        "classnamespace": "box",
                        "rect": [ 437.0, 387.0, 640.0, 480.0 ],
                        "boxes": [
                            {
                                "box": {
                                    "id": "obj-6",
                                    "maxclass": "newobj",
                                    "numinlets": 2,
                                    "numoutlets": 2,
                                    "outlettype": [ "", "" ],
                                    "patching_rect": [ 50.0, 270.0, 38.0, 22.0 ],
                                    "text": "zl.reg"
                                }
                            },
                            {
                                "box": {
                                    "id": "obj-5",
                                    "maxclass": "newobj",
                                    "numinlets": 4,
                                    "numoutlets": 1,
                                    "outlettype": [ "" ],
                                    "patching_rect": [ 69.0, 225.0, 50.5, 22.0 ],
                                    "text": "join 4"
                                }
                            },
                            {
                                "box": {
                                    "id": "obj-4",
                                    "maxclass": "newobj",
                                    "numinlets": 1,
                                    "numoutlets": 5,
                                    "outlettype": [ "", "", "", "", "" ],
                                    "patching_rect": [ 69.0, 180.0, 61.0, 22.0 ],
                                    "text": "unjoin 4"
                                }
                            },
                            {
                                "box": {
                                    "id": "obj-3",
                                    "maxclass": "message",
                                    "numinlets": 2,
                                    "numoutlets": 1,
                                    "outlettype": [ "" ],
                                    "patching_rect": [ 95.0, 135.0, 75.0, 22.0 ],
                                    "text": "0 0.7 0.5 0.5"
                                }
                            },
                            {
                                "box": {
                                    "id": "obj-1",
                                    "maxclass": "newobj",
                                    "numinlets": 1,
                                    "numoutlets": 3,
                                    "outlettype": [ "bang", "", "bang" ],
                                    "patching_rect": [ 50.0, 90.0, 40.0, 22.0 ],
                                    "text": "t b l b"
                                }
                            },
                            {
                                "box": {
                                    "comment": "",
                                    "id": "obj-9",
                                    "index": 1,
                                    "maxclass": "inlet",
                                    "numinlets": 0,
                                    "numoutlets": 1,
                                    "outlettype": [ "" ],
                                    "patching_rect": [ 50.0, 40.0, 30.0, 30.0 ]
                                }
                            },
                            {
                                "box": {
                                    "comment": "",
                                    "id": "obj-12",
                                    "index": 1,
                                    "maxclass": "outlet",
                                    "numinlets": 1,
                                    "numoutlets": 0,
                                    "patching_rect": [ 50.0, 315.0, 30.0, 30.0 ]
                                }
                            }
                        ],
                        "lines": [
                            {
                                "patchline": {
                                    "destination": [ "obj-3", 0 ],
                                    "source": [ "obj-1", 2 ]
                                }
                            },
                            {
                                "patchline": {
                                    "destination": [ "obj-4", 0 ],
                                    "source": [ "obj-1", 1 ]
                                }
                            },
                            {
                                "patchline": {
                                    "destination": [ "obj-6", 0 ],
                                    "source": [ "obj-1", 0 ]
                                }
                            },
                            {
                                "patchline": {
                                    "destination": [ "obj-4", 0 ],
                                    "source": [ "obj-3", 0 ]
                                }
                            },
                            {
                                "patchline": {
                                    "destination": [ "obj-5", 3 ],
                                    "source": [ "obj-4", 3 ]
                                }
                            },
                            {
                                "patchline": {
                                    "destination": [ "obj-5", 2 ],
                                    "source": [ "obj-4", 2 ]
                                }
                            },
                            {
                                "patchline": {
                                    "destination": [ "obj-5", 1 ],
                                    "source": [ "obj-4", 1 ]
                                }
                            },
                            {
                                "patchline": {
                                    "destination": [ "obj-5", 0 ],
                                    "source": [ "obj-4", 0 ]
                                }
                            },
                            {
                                "patchline": {
                                    "destination": [ "obj-6", 1 ],
                                    "source": [ "obj-5", 0 ]
                                }
                            },
                            {
                                "patchline": {
                                    "destination": [ "obj-12", 0 ],
                                    "source": [ "obj-6", 0 ]
                                }
                            },
                            {
                                "patchline": {
                                    "destination": [ "obj-1", 0 ],
                                    "source": [ "obj-9", 0 ]
                                }
                            }
                        ],
                        "toolbaradditions": [ "audiomute", "audiosolo", "packagemanager" ]
                    },
                    "patching_rect": [ 146.0, 75.0, 55.0, 22.0 ],
                    "text": "p default"
                }
            },
            {
                "box": {
                    "id": "obj-23",
                    "maxclass": "newobj",
                    "numinlets": 2,
                    "numoutlets": 1,
                    "outlettype": [ "float" ],
                    "patching_rect": [ 146.0, 285.0, 49.0, 22.0 ],
                    "text": "!/ 1000."
                }
            },
            {
                "box": {
                    "id": "obj-20",
                    "maxclass": "newobj",
                    "numinlets": 2,
                    "numoutlets": 1,
                    "outlettype": [ "" ],
                    "patching_rect": [ 236.0, 195.0, 84.0, 22.0 ],
                    "text": "argListLookup"
                }
            },
            {
                "box": {
                    "id": "obj-19",
                    "maxclass": "newobj",
                    "numinlets": 1,
                    "numoutlets": 5,
                    "outlettype": [ "", "", "", "", "" ],
                    "patching_rect": [ 146.0, 105.0, 61.0, 22.0 ],
                    "text": "unjoin 4"
                }
            },
            {
                "box": {
                    "id": "obj-4",
                    "linecount": 6,
                    "maxclass": "comment",
                    "numinlets": 1,
                    "numoutlets": 0,
                    "patching_rect": [ 375.0, 45.0, 192.0, 87.0 ],
                    "text": "comb filter / karplus-strong effect\n\npitch (-12 to 48) (mapped to scale)\nfeedback (-0.999 - 0.999)\ndamping (0 - 1)\ndrywet (0 - 1)"
                }
            },
            {
                "box": {
                    "id": "obj-5",
                    "maxclass": "newobj",
                    "numinlets": 1,
                    "numoutlets": 1,
                    "outlettype": [ "signal" ],
                    "patcher": {
                        "fileversion": 1,
                        "appversion": {
                            "major": 9,
                            "minor": 1,
                            "revision": 1,
                            "architecture": "x64",
                            "modernui": 1
                        },
                        "classnamespace": "dsp.gen",
                        "rect": [ 747.0, 339.0, 600.0, 450.0 ],
                        "boxes": [
                            {
                                "box": {
                                    "id": "obj-4",
                                    "maxclass": "newobj",
                                    "numinlets": 2,
                                    "numoutlets": 1,
                                    "outlettype": [ "" ],
                                    "patching_rect": [ 225.0, 321.0, 29.5, 22.0 ],
                                    "text": "*"
                                }
                            },
                            {
                                "box": {
                                    "id": "obj-3",
                                    "maxclass": "newobj",
                                    "numinlets": 1,
                                    "numoutlets": 1,
                                    "outlettype": [ "" ],
                                    "patching_rect": [ 293.0, 290.0, 31.0, 22.0 ],
                                    "text": "sign"
                                }
                            },
                            {
                                "box": {
                                    "id": "obj-2",
                                    "maxclass": "newobj",
                                    "numinlets": 1,
                                    "numoutlets": 1,
                                    "outlettype": [ "" ],
                                    "patching_rect": [ 225.0, 290.0, 51.0, 22.0 ],
                                    "text": "pow 0.1"
                                }
                            },
                            {
                                "box": {
                                    "id": "obj-1",
                                    "maxclass": "newobj",
                                    "numinlets": 1,
                                    "numoutlets": 1,
                                    "outlettype": [ "" ],
                                    "patching_rect": [ 225.0, 260.0, 28.0, 22.0 ],
                                    "text": "abs"
                                }
                            },
                            {
                                "box": {
                                    "id": "obj-30",
                                    "maxclass": "newobj",
                                    "numinlets": 0,
                                    "numoutlets": 1,
                                    "outlettype": [ "" ],
                                    "patching_rect": [ 193.0, 178.0, 205.0, 22.0 ],
                                    "text": "param damping 0.5 @min 0 @max 1"
                                }
                            },
                            {
                                "box": {
                                    "id": "obj-29",
                                    "maxclass": "newobj",
                                    "numinlets": 1,
                                    "numoutlets": 1,
                                    "outlettype": [ "" ],
                                    "patching_rect": [ 75.0, 225.0, 44.0, 22.0 ],
                                    "text": "history"
                                }
                            },
                            {
                                "box": {
                                    "id": "obj-28",
                                    "maxclass": "newobj",
                                    "numinlets": 3,
                                    "numoutlets": 1,
                                    "outlettype": [ "" ],
                                    "patching_rect": [ 60.0, 270.0, 40.0, 22.0 ],
                                    "text": "mix"
                                }
                            },
                            {
                                "box": {
                                    "id": "obj-27",
                                    "maxclass": "newobj",
                                    "numinlets": 0,
                                    "numoutlets": 1,
                                    "outlettype": [ "" ],
                                    "patching_rect": [ 225.0, 225.0, 258.0, 22.0 ],
                                    "text": "param feedback 0.9 @min -0.999 @max 0.999"
                                }
                            },
                            {
                                "box": {
                                    "id": "obj-26",
                                    "maxclass": "newobj",
                                    "numinlets": 1,
                                    "numoutlets": 1,
                                    "outlettype": [ "" ],
                                    "patching_rect": [ 151.0, 134.0, 70.0, 22.0 ],
                                    "text": "mstosamps"
                                }
                            },
                            {
                                "box": {
                                    "id": "obj-25",
                                    "maxclass": "newobj",
                                    "numinlets": 0,
                                    "numoutlets": 1,
                                    "outlettype": [ "" ],
                                    "patching_rect": [ 151.0, 105.0, 230.0, 22.0 ],
                                    "text": "param delaytime 10 @min 0.1 @max 250"
                                }
                            },
                            {
                                "box": {
                                    "id": "obj-24",
                                    "maxclass": "newobj",
                                    "numinlets": 2,
                                    "numoutlets": 1,
                                    "outlettype": [ "" ],
                                    "patching_rect": [ 89.5, 315.0, 29.5, 22.0 ],
                                    "text": "*"
                                }
                            },
                            {
                                "box": {
                                    "id": "obj-23",
                                    "maxclass": "newobj",
                                    "numinlets": 2,
                                    "numoutlets": 1,
                                    "outlettype": [ "" ],
                                    "patching_rect": [ 60.0, 178.0, 110.0, 22.0 ],
                                    "text": "delay samplerate/4"
                                }
                            },
                            {
                                "box": {
                                    "id": "obj-11",
                                    "maxclass": "newobj",
                                    "numinlets": 1,
                                    "numoutlets": 0,
                                    "patching_rect": [ 60.0, 375.0, 227.0, 22.0 ],
                                    "text": "out 1 @comment \"(signal) filtered output\""
                                }
                            },
                            {
                                "box": {
                                    "id": "obj-5",
                                    "maxclass": "newobj",
                                    "numinlets": 0,
                                    "numoutlets": 1,
                                    "outlettype": [ "" ],
                                    "patching_rect": [ 60.0, 30.0, 212.0, 22.0 ],
                                    "text": "in 1 @comment \"(signal) exciter input\""
                                }
                            }
                        ],
                        "lines": [
                            {
                                "patchline": {
                                    "destination": [ "obj-2", 0 ],
                                    "source": [ "obj-1", 0 ]
                                }
                            },
                            {
                                "patchline": {
                                    "destination": [ "obj-4", 0 ],
                                    "source": [ "obj-2", 0 ]
                                }
                            },
                            {
                                "patchline": {
                                    "destination": [ "obj-28", 0 ],
                                    "source": [ "obj-23", 0 ]
                                }
                            },
                            {
                                "patchline": {
                                    "destination": [ "obj-23", 0 ],
                                    "midpoints": [ 99.0, 345.35546875, 31.0, 345.35546875, 31.0, 168.0, 69.5, 168.0 ],
                                    "source": [ "obj-24", 0 ]
                                }
                            },
                            {
                                "patchline": {
                                    "destination": [ "obj-26", 0 ],
                                    "source": [ "obj-25", 0 ]
                                }
                            },
                            {
                                "patchline": {
                                    "destination": [ "obj-23", 1 ],
                                    "source": [ "obj-26", 0 ]
                                }
                            },
                            {
                                "patchline": {
                                    "destination": [ "obj-1", 0 ],
                                    "order": 1,
                                    "source": [ "obj-27", 0 ]
                                }
                            },
                            {
                                "patchline": {
                                    "destination": [ "obj-3", 0 ],
                                    "order": 0,
                                    "source": [ "obj-27", 0 ]
                                }
                            },
                            {
                                "patchline": {
                                    "destination": [ "obj-11", 0 ],
                                    "order": 2,
                                    "source": [ "obj-28", 0 ]
                                }
                            },
                            {
                                "patchline": {
                                    "destination": [ "obj-24", 0 ],
                                    "order": 0,
                                    "source": [ "obj-28", 0 ]
                                }
                            },
                            {
                                "patchline": {
                                    "destination": [ "obj-29", 0 ],
                                    "midpoints": [ 69.5, 302.0, 53.2421875, 302.0, 53.2421875, 217.87109375, 84.5, 217.87109375 ],
                                    "order": 1,
                                    "source": [ "obj-28", 0 ]
                                }
                            },
                            {
                                "patchline": {
                                    "destination": [ "obj-28", 1 ],
                                    "source": [ "obj-29", 0 ]
                                }
                            },
                            {
                                "patchline": {
                                    "destination": [ "obj-4", 1 ],
                                    "source": [ "obj-3", 0 ]
                                }
                            },
                            {
                                "patchline": {
                                    "destination": [ "obj-28", 2 ],
                                    "source": [ "obj-30", 0 ]
                                }
                            },
                            {
                                "patchline": {
                                    "destination": [ "obj-24", 1 ],
                                    "source": [ "obj-4", 0 ]
                                }
                            },
                            {
                                "patchline": {
                                    "destination": [ "obj-23", 0 ],
                                    "source": [ "obj-5", 0 ]
                                }
                            }
                        ],
                        "autosave": 0
                    },
                    "patching_rect": [ 90.0, 390.0, 210.0, 22.0 ],
                    "text": "gen~ @t lowpass-feedback-combfilter"
                }
            },
            {
                "box": {
                    "id": "obj-10",
                    "maxclass": "newobj",
                    "numinlets": 1,
                    "numoutlets": 1,
                    "outlettype": [ "" ],
                    "patching_rect": [ 435.0, 150.0, 28.0, 22.0 ],
                    "saved_object_attributes": {
                        "attr_comment": "",
                        "c": ""
                    },
                    "text": "in 2"
                }
            },
            {
                "box": {
                    "id": "obj-3",
                    "maxclass": "newobj",
                    "numinlets": 1,
                    "numoutlets": 0,
                    "patching_rect": [ 45.5, 495.0, 42.0, 22.0 ],
                    "saved_object_attributes": {
                        "attr_comment": "",
                        "c": ""
                    },
                    "text": "out~ 1"
                }
            },
            {
                "box": {
                    "id": "obj-2",
                    "maxclass": "newobj",
                    "numinlets": 1,
                    "numoutlets": 1,
                    "outlettype": [ "" ],
                    "patching_rect": [ 146.0, 45.0, 28.0, 22.0 ],
                    "saved_object_attributes": {
                        "attr_comment": "",
                        "c": ""
                    },
                    "text": "in 1"
                }
            },
            {
                "box": {
                    "id": "obj-1",
                    "maxclass": "newobj",
                    "numinlets": 1,
                    "numoutlets": 1,
                    "outlettype": [ "signal" ],
                    "patching_rect": [ 45.5, 330.0, 35.0, 22.0 ],
                    "saved_object_attributes": {
                        "attr_comment": "",
                        "c": ""
                    },
                    "text": "in~ 1"
                }
            }
        ],
        "lines": [
            {
                "patchline": {
                    "destination": [ "obj-5", 0 ],
                    "order": 0,
                    "source": [ "obj-1", 0 ]
                }
            },
            {
                "patchline": {
                    "destination": [ "obj-6", 0 ],
                    "order": 1,
                    "source": [ "obj-1", 0 ]
                }
            },
            {
                "patchline": {
                    "destination": [ "obj-20", 1 ],
                    "order": 2,
                    "source": [ "obj-10", 0 ]
                }
            },
            {
                "patchline": {
                    "destination": [ "obj-24", 1 ],
                    "order": 3,
                    "source": [ "obj-10", 0 ]
                }
            },
            {
                "patchline": {
                    "destination": [ "obj-7", 1 ],
                    "order": 1,
                    "source": [ "obj-10", 0 ]
                }
            },
            {
                "patchline": {
                    "destination": [ "obj-9", 1 ],
                    "order": 0,
                    "source": [ "obj-10", 0 ]
                }
            },
            {
                "patchline": {
                    "destination": [ "obj-12", 0 ],
                    "source": [ "obj-11", 0 ]
                }
            },
            {
                "patchline": {
                    "destination": [ "obj-23", 0 ],
                    "source": [ "obj-12", 0 ]
                }
            },
            {
                "patchline": {
                    "destination": [ "obj-19", 0 ],
                    "source": [ "obj-13", 0 ]
                }
            },
            {
                "patchline": {
                    "destination": [ "obj-5", 0 ],
                    "source": [ "obj-14", 0 ]
                }
            },
            {
                "patchline": {
                    "destination": [ "obj-24", 0 ],
                    "source": [ "obj-16", 0 ]
                }
            },
            {
                "patchline": {
                    "destination": [ "obj-5", 0 ],
                    "source": [ "obj-17", 0 ]
                }
            },
            {
                "patchline": {
                    "destination": [ "obj-16", 0 ],
                    "source": [ "obj-19", 0 ]
                }
            },
            {
                "patchline": {
                    "destination": [ "obj-20", 0 ],
                    "source": [ "obj-19", 1 ]
                }
            },
            {
                "patchline": {
                    "destination": [ "obj-7", 0 ],
                    "source": [ "obj-19", 2 ]
                }
            },
            {
                "patchline": {
                    "destination": [ "obj-9", 0 ],
                    "source": [ "obj-19", 3 ]
                }
            },
            {
                "patchline": {
                    "destination": [ "obj-13", 0 ],
                    "source": [ "obj-2", 0 ]
                }
            },
            {
                "patchline": {
                    "destination": [ "obj-17", 0 ],
                    "source": [ "obj-20", 0 ]
                }
            },
            {
                "patchline": {
                    "destination": [ "obj-5", 0 ],
                    "source": [ "obj-21", 0 ]
                }
            },
            {
                "patchline": {
                    "destination": [ "obj-14", 0 ],
                    "source": [ "obj-23", 0 ]
                }
            },
            {
                "patchline": {
                    "destination": [ "obj-11", 0 ],
                    "source": [ "obj-24", 0 ]
                }
            },
            {
                "patchline": {
                    "destination": [ "obj-6", 1 ],
                    "source": [ "obj-5", 0 ]
                }
            },
            {
                "patchline": {
                    "destination": [ "obj-3", 0 ],
                    "source": [ "obj-6", 0 ]
                }
            },
            {
                "patchline": {
                    "destination": [ "obj-21", 0 ],
                    "source": [ "obj-7", 0 ]
                }
            },
            {
                "patchline": {
                    "destination": [ "obj-6", 2 ],
                    "source": [ "obj-9", 0 ]
                }
            }
        ],
        "styles": [
            {
                "name": "AudioStatus_Menu",
                "default": {
                    "bgfillcolor": {
                        "angle": 270.0,
                        "autogradient": 0,
                        "color": [ 0.294118, 0.313726, 0.337255, 1 ],
                        "color1": [ 0.454902, 0.462745, 0.482353, 0.0 ],
                        "color2": [ 0.290196, 0.309804, 0.301961, 1.0 ],
                        "proportion": 0.39,
                        "type": "color"
                    }
                },
                "parentstyle": "",
                "multi": 0
            },
            {
                "name": "Audiomix",
                "default": {
                    "bgfillcolor": {
                        "angle": 270.0,
                        "color": [ 0.290196, 0.309804, 0.301961, 1.0 ],
                        "color1": [ 0.376471, 0.384314, 0.4, 1.0 ],
                        "color2": [ 0.290196, 0.309804, 0.301961, 1.0 ],
                        "proportion": 0.39,
                        "type": "gradient"
                    }
                },
                "parentstyle": "",
                "multi": 0
            },
            {
                "name": "numberB-1",
                "default": {
                    "accentcolor": [ 0.011765, 0.396078, 0.752941, 1.0 ]
                },
                "parentstyle": "",
                "multi": 0
            },
            {
                "name": "numberG-1",
                "default": {
                    "accentcolor": [ 0.0, 0.533333, 0.168627, 1.0 ]
                },
                "parentstyle": "",
                "multi": 0
            },
            {
                "name": "numberGold-1",
                "default": {
                    "accentcolor": [ 0.764706, 0.592157, 0.101961, 1.0 ]
                },
                "parentstyle": "",
                "multi": 0
            },
            {
                "name": "numberR-1",
                "default": {
                    "accentcolor": [ 0.784314, 0.145098, 0.023529, 1.0 ]
                },
                "parentstyle": "",
                "multi": 0
            }
        ],
        "toolbaradditions": [ "audiomute", "audiosolo", "packagemanager" ]
    }
}